<svg xmlns="http://www.w3.org/2000/svg" viewBox="0 0 330.921 46.133"><defs><style>.a{fill:#ffb61e;}</style></defs><path class="a" d="M218.983,43.136a21.926,21.926,0,0,1-8.552-8.235,23.041,23.041,0,0,1-3.088-11.892A22.1,22.1,0,0,1,219.469,2.965,27.313,27.313,0,0,1,232.289,0a30.263,30.263,0,0,1,10.353,1.889,26.792,26.792,0,0,1,8.741,5.032L243.1,16.956a16.4,16.4,0,0,0-5.2-3.5,14.418,14.418,0,0,0-5.7-1.29,9.33,9.33,0,0,0-5.039,1.417,9.684,9.684,0,0,0-3.53,3.874A11.987,11.987,0,0,0,222.363,23a12.183,12.183,0,0,0,1.289,5.641,9.894,9.894,0,0,0,3.569,3.9,9.407,9.407,0,0,0,5.1,1.417,18.328,18.328,0,0,0,6.5-1.628l.005-10.585h12.553V40.217a33.2,33.2,0,0,1-9.2,4.156,40.357,40.357,0,0,1-10.876,1.756c-.137,0-.269,0-.406,0A25.2,25.2,0,0,1,218.983,43.136Zm73.963,2.993V0h37.96V11.588H307.559v5.657h20.7V28.822H307.57v5.727h23.352v11.58Zm-36.834,0V0h14.65V33.429h18.4v12.7Zm-65.083,0L173.636,22.572V46.129H160.314V0h12.235L190.02,23.688V0h13.255V46.129Zm-102.044,0V0h14.655V46.129ZM63.38,34.155H57.887V46.129H43.24V0H64.617Q73.64,0,78.557,4.315t4.918,12.206a19.738,19.738,0,0,1-1.8,8.692,14.136,14.136,0,0,1-5.174,5.9l8.7,15-16.531.017ZM57.89,22.572h6.755a4.635,4.635,0,0,0,3.688-1.479,6.054,6.054,0,0,0,1.292-4.118,5.6,5.6,0,0,0-1.292-3.98,4.733,4.733,0,0,0-3.688-1.412H57.9ZM12.53,46.129V12.044H0V0H39.8v12.04H27.185V46.129Zm93.606,0L131.964,0l25.829,46.122ZM123.1,36.572h17.73l-8.867-15.838Z" transform="translate(0 0)"/></svg>