<svg xmlns="http://www.w3.org/2000/svg" viewBox="0 0 330 330"><defs><style>.a{fill:#ffb61e;}.b{fill:#fff;}</style></defs><g transform="translate(-240 -13)"><circle class="a" cx="165" cy="165" r="165" transform="translate(240 13)"/><path class="b" d="M178.508,35.163a17.873,17.873,0,0,1-6.971-6.713,18.782,18.782,0,0,1-2.517-9.694A18.013,18.013,0,0,1,178.9,2.417,22.265,22.265,0,0,1,189.355,0a24.67,24.67,0,0,1,8.44,1.54,21.84,21.84,0,0,1,7.125,4.1l-6.752,8.177a13.369,13.369,0,0,0-4.241-2.852,11.753,11.753,0,0,0-4.65-1.052,7.606,7.606,0,0,0-4.108,1.155,7.894,7.894,0,0,0-2.878,3.158,9.772,9.772,0,0,0-1.028,4.521,9.931,9.931,0,0,0,1.051,4.6,8.066,8.066,0,0,0,2.91,3.183,7.668,7.668,0,0,0,4.159,1.155,14.94,14.94,0,0,0,5.3-1.327l0-8.628h10.233v15.05a27.061,27.061,0,0,1-7.5,3.388,32.9,32.9,0,0,1-8.866,1.431c-.112,0-.219,0-.331,0A20.54,20.54,0,0,1,178.508,35.163ZM238.8,37.6V0h30.944V9.446H250.713v4.611h16.875v9.438H250.721v4.668h19.036V37.6Zm-30.026,0V0h11.942V27.25h15V37.6Zm-53.053,0L141.543,18.4V37.6h-10.86V0h9.974L154.9,19.309V0h10.8V37.6Zm-83.183,0V0H84.485V37.6ZM51.665,27.842H47.188V37.6H35.248V0H52.674q7.355,0,11.364,3.514t4.009,9.95a16.09,16.09,0,0,1-1.466,7.085,11.523,11.523,0,0,1-4.218,4.807l7.091,12.23L55.978,37.6ZM47.19,18.4H52.7A3.778,3.778,0,0,0,55.7,17.194a4.935,4.935,0,0,0,1.053-3.357A4.567,4.567,0,0,0,55.7,10.593,3.858,3.858,0,0,0,52.7,9.442H47.2ZM10.214,37.6V9.818H0V0H32.44V9.818H22.16V37.6Zm76.3,0L107.573,0l21.055,37.6Zm13.83-7.787H114.8L107.573,16.9Z" transform="translate(270.582 159.587)"/></g></svg>